<svg width="24" height="24" viewBox="0 0 24 24" fill="none" xmlns="http://www.w3.org/2000/svg">
<path d="M12.2716 11.4282L7.7386 6.09964C7.68533 6.03594 7.60188 6 7.51488 6H6.14236C6.0234 6 5.9577 6.12578 6.0305 6.21072L10.7429 11.75L6.0305 17.2893C6.01411 17.3085 6.00394 17.3317 6.00115 17.356C5.99836 17.3803 6.00307 17.4049 6.01474 17.4268C6.02641 17.4488 6.04457 17.4673 6.06713 17.4803C6.0897 17.4932 6.11577 17.5001 6.14236 17.5H7.51488C7.60188 17.5 7.68533 17.4624 7.7386 17.4004L12.2716 12.0734C12.4332 11.8823 12.4332 11.6177 12.2716 11.4282ZM17.6694 11.4282L13.1363 6.09964C13.0831 6.03594 12.9996 6 12.9126 6H11.5401C11.4211 6 11.3554 6.12578 11.4282 6.21072L16.1406 11.75L11.4282 17.2893C11.4118 17.3085 11.4017 17.3317 11.3989 17.356C11.3961 17.3803 11.4008 17.4049 11.4125 17.4268C11.4241 17.4488 11.4423 17.4673 11.4649 17.4803C11.4874 17.4932 11.5135 17.5001 11.5401 17.5H12.9126C12.9996 17.5 13.0831 17.4624 13.1363 17.4004L17.6694 12.0734C17.8309 11.8823 17.8309 11.6177 17.6694 11.4282Z" fill="black"/>
</svg>
