<svg width="24" height="24" viewBox="0 0 24 24" fill="none" xmlns="http://www.w3.org/2000/svg">
<path d="M8.56165 12.1514L14.3273 16.3233C14.4515 16.4124 14.6249 16.3233 14.6249 16.171V15.0717C14.6249 14.8327 14.5101 14.6053 14.3156 14.4647L10.9077 11.9991L14.3156 9.53345C14.5101 9.39283 14.6249 9.16783 14.6249 8.92642V7.8272C14.6249 7.67486 14.4515 7.58579 14.3273 7.67486L8.56165 11.8467C8.53768 11.8642 8.51818 11.8872 8.50473 11.9136C8.49129 11.9401 8.48428 11.9694 8.48428 11.9991C8.48428 12.0288 8.49129 12.058 8.50473 12.0845C8.51818 12.111 8.53768 12.1339 8.56165 12.1514Z" fill="black"/>
<path d="M20.625 2.625H3.375C2.96016 2.625 2.625 2.96016 2.625 3.375V20.625C2.625 21.0398 2.96016 21.375 3.375 21.375H20.625C21.0398 21.375 21.375 21.0398 21.375 20.625V3.375C21.375 2.96016 21.0398 2.625 20.625 2.625ZM19.6875 19.6875H4.3125V4.3125H19.6875V19.6875Z" fill="black"/>
</svg>
