<svg width="24" height="24" viewBox="0 0 24 24" fill="none" xmlns="http://www.w3.org/2000/svg">
<path d="M20.3438 17.1548H18.6961C18.5836 17.1548 18.4782 17.204 18.4078 17.2907C18.2438 17.4899 18.068 17.6821 17.8828 17.8649C17.1256 18.623 16.2286 19.2271 15.2414 19.6438C14.2188 20.0758 13.1196 20.2974 12.0094 20.2954C10.8868 20.2954 9.79925 20.0751 8.77738 19.6438C7.79026 19.2271 6.89325 18.623 6.13597 17.8649C5.37733 17.1094 4.77242 16.214 4.35472 15.2282C3.92113 14.2063 3.70316 13.1212 3.70316 11.9985C3.70316 10.8759 3.92347 9.7907 4.35472 8.76882C4.77191 7.7821 5.37191 6.89382 6.13597 6.1321C6.90003 5.37038 7.78831 4.77038 8.77738 4.3532C9.79925 3.92195 10.8868 3.70163 12.0094 3.70163C13.1321 3.70163 14.2196 3.9196 15.2414 4.3532C16.2305 4.77038 17.1188 5.37038 17.8828 6.1321C18.068 6.31726 18.2414 6.50945 18.4078 6.70632C18.4782 6.79304 18.586 6.84226 18.6961 6.84226H20.3438C20.4914 6.84226 20.5828 6.6782 20.5008 6.55398C18.7032 3.76023 15.5578 1.91101 11.9836 1.92038C6.368 1.93445 1.86566 6.49304 1.92191 12.1016C1.97816 17.6212 6.47347 22.0766 12.0094 22.0766C15.5743 22.0766 18.7055 20.2298 20.5008 17.443C20.5805 17.3188 20.4914 17.1548 20.3438 17.1548ZM22.4274 11.8509L19.1016 9.22585C18.9774 9.12742 18.7969 9.21648 18.7969 9.37351V11.1548H11.4375C11.3344 11.1548 11.25 11.2391 11.25 11.3423V12.6548C11.25 12.7579 11.3344 12.8423 11.4375 12.8423H18.7969V14.6235C18.7969 14.7805 18.9797 14.8696 19.1016 14.7712L22.4274 12.1462C22.4498 12.1286 22.4679 12.1062 22.4804 12.0806C22.4928 12.0551 22.4993 12.027 22.4993 11.9985C22.4993 11.9701 22.4928 11.942 22.4804 11.9164C22.4679 11.8908 22.4498 11.8684 22.4274 11.8509Z" fill="black"/>
</svg>
