<svg width="24" height="24" viewBox="0 0 24 24" fill="none" xmlns="http://www.w3.org/2000/svg">
<path d="M20.0391 3.75178L15.6047 4.30256C15.45 4.32131 15.3867 4.50881 15.4945 4.61897L16.7766 5.901L13.1789 9.49865C13.144 9.53389 13.1244 9.58148 13.1244 9.63107C13.1244 9.68067 13.144 9.72826 13.1789 9.7635L14.2359 10.8205C14.3086 10.8932 14.4281 10.8932 14.5008 10.8205L18.1008 7.22053L19.3828 8.50256C19.4076 8.52728 19.4388 8.54453 19.4728 8.55234C19.5069 8.56014 19.5425 8.55818 19.5756 8.54669C19.6086 8.53519 19.6377 8.51461 19.6596 8.48733C19.6815 8.46004 19.6952 8.42714 19.6992 8.3924L20.2477 3.96037C20.2515 3.93207 20.2488 3.90325 20.2397 3.87617C20.2306 3.84909 20.2154 3.82449 20.1952 3.80429C20.1749 3.78409 20.1503 3.76884 20.1233 3.75973C20.0962 3.75062 20.0674 3.7479 20.0391 3.75178ZM9.76407 13.1783C9.72883 13.1434 9.68124 13.1239 9.63165 13.1239C9.58206 13.1239 9.53447 13.1434 9.49923 13.1783L5.90157 16.7783L4.61954 15.4963C4.5948 15.4716 4.5636 15.4543 4.52951 15.4465C4.49542 15.4387 4.45983 15.4407 4.4268 15.4522C4.39377 15.4637 4.36465 15.4843 4.34278 15.5115C4.32091 15.5388 4.30717 15.5717 4.30313 15.6065L3.75235 20.0385C3.73829 20.1604 3.83907 20.2612 3.96095 20.2471L8.39532 19.6963C8.55001 19.6776 8.61329 19.4901 8.50548 19.3799L7.22345 18.0979L10.8234 14.4979C10.8961 14.4252 10.8961 14.3057 10.8234 14.233L9.76407 13.1783Z" fill="black"/>
</svg>
