<svg width="24" height="24" viewBox="0 0 24 24" fill="none" xmlns="http://www.w3.org/2000/svg">
<path d="M11.3816 5.85615L4.64568 11.671C4.45115 11.8374 4.45115 12.1585 4.64568 12.3249L11.3816 18.1421C11.6324 18.3577 12.0004 18.1632 12.0004 17.814V6.18193C12.0004 5.83506 11.6324 5.63818 11.3816 5.85615ZM18.8816 5.85615L12.1457 11.671C12.0996 11.7122 12.0628 11.7628 12.0377 11.8194C12.0126 11.876 11.9999 11.9372 12.0004 11.9991C12.0004 12.121 12.0496 12.2429 12.1457 12.3272L18.8816 18.1444C19.1324 18.3601 19.5004 18.1655 19.5004 17.8163V6.18193C19.5004 5.83506 19.1324 5.63818 18.8816 5.85615Z" fill="black"/>
</svg>
