<svg width="24" height="24" viewBox="0 0 24 24" fill="none" xmlns="http://www.w3.org/2000/svg">
<path d="M7.65015 11.75L12.3625 6.21072C12.4353 6.12578 12.3696 6 12.2507 6H10.8781C10.7911 6 10.7077 6.03757 10.6544 6.09964L6.12139 11.4282C6.04288 11.5202 6.00021 11.6338 6.00021 11.7508C6.00021 11.8678 6.04288 11.9814 6.12139 12.0734L10.6544 17.4004C10.7077 17.4641 10.7911 17.5 10.8781 17.5H12.2507C12.3696 17.5 12.4353 17.3742 12.3625 17.2893L7.65015 11.75ZM13.0479 11.75L17.7602 6.21072C17.833 6.12578 17.7673 6 17.6484 6H16.2759C16.1889 6 16.1054 6.03757 16.0521 6.09964L11.5191 11.4282C11.4406 11.5202 11.3979 11.6338 11.3979 11.7508C11.3979 11.8678 11.4406 11.9814 11.5191 12.0734L16.0521 17.4004C16.1054 17.4641 16.1889 17.5 16.2759 17.5H17.6484C17.7673 17.5 17.833 17.3742 17.7602 17.2893L13.0479 11.75Z" fill="black"/>
</svg>
