<svg width="24" height="24" viewBox="0 0 24 24" fill="none" xmlns="http://www.w3.org/2000/svg">
<path d="M16.1719 9.49219H15.0727C14.8336 9.49219 14.6063 9.60703 14.4657 9.80156L12 13.2094L9.5344 9.80156C9.39378 9.60703 9.16878 9.49219 8.92737 9.49219H7.82815C7.6758 9.49219 7.58674 9.66563 7.6758 9.78984L11.8477 15.5555C11.9227 15.6586 12.075 15.6586 12.15 15.5555L16.3219 9.78984C16.4133 9.66563 16.3243 9.49219 16.1719 9.49219Z" fill="black"/>
<path d="M12 1.5C6.20156 1.5 1.5 6.20156 1.5 12C1.5 17.7984 6.20156 22.5 12 22.5C17.7984 22.5 22.5 17.7984 22.5 12C22.5 6.20156 17.7984 1.5 12 1.5ZM12 20.7188C7.18594 20.7188 3.28125 16.8141 3.28125 12C3.28125 7.18594 7.18594 3.28125 12 3.28125C16.8141 3.28125 20.7188 7.18594 20.7188 12C20.7188 16.8141 16.8141 20.7188 12 20.7188Z" fill="black"/>
</svg>
