<svg width="24" height="24" viewBox="0 0 24 24" fill="none" xmlns="http://www.w3.org/2000/svg">
<path d="M15.6258 11.8468L9.86013 7.67495C9.83211 7.6546 9.799 7.64242 9.76448 7.63974C9.72996 7.63706 9.69537 7.64399 9.66454 7.65977C9.63372 7.67554 9.60787 7.69955 9.58985 7.72911C9.57183 7.75868 9.56236 7.79266 9.56247 7.82729V8.9265C9.56247 9.16557 9.67731 9.39291 9.87185 9.53353L13.2797 11.9992L9.87185 14.4648C9.67731 14.6054 9.56247 14.8304 9.56247 15.0718V16.171C9.56247 16.3234 9.73591 16.4124 9.86013 16.3234L15.6258 12.1515C15.7289 12.0765 15.7289 11.9218 15.6258 11.8468Z" fill="black"/>
<path d="M12 1.5C6.20156 1.5 1.5 6.20156 1.5 12C1.5 17.7984 6.20156 22.5 12 22.5C17.7984 22.5 22.5 17.7984 22.5 12C22.5 6.20156 17.7984 1.5 12 1.5ZM12 20.7188C7.18594 20.7188 3.28125 16.8141 3.28125 12C3.28125 7.18594 7.18594 3.28125 12 3.28125C16.8141 3.28125 20.7188 7.18594 20.7188 12C20.7188 16.8141 16.8141 20.7188 12 20.7188Z" fill="black"/>
</svg>
