<svg width="24" height="24" viewBox="0 0 24 24" fill="none" xmlns="http://www.w3.org/2000/svg">
<path d="M20.6653 4.39165L19.6082 3.33462C19.573 3.29973 19.5254 3.28015 19.4758 3.28015C19.4262 3.28015 19.3786 3.29973 19.3434 3.33462L15.652 7.02837L14.3699 5.74634C14.3452 5.72162 14.314 5.70436 14.2799 5.69656C14.2458 5.68876 14.2102 5.69071 14.1772 5.70221C14.1442 5.71371 14.1151 5.73428 14.0932 5.76157C14.0713 5.78886 14.0576 5.82176 14.0535 5.85649L13.5028 10.2885C13.4887 10.4104 13.5895 10.5112 13.7113 10.4971L18.1457 9.94634C18.3004 9.92759 18.3637 9.74009 18.2559 9.62993L16.9738 8.3479L20.6676 4.65415C20.7379 4.58384 20.7379 4.46431 20.6653 4.39165ZM10.2895 13.5018L5.8551 14.0526C5.70041 14.0713 5.63713 14.2612 5.74494 14.369L7.02697 15.651L3.33557 19.3424C3.30067 19.3777 3.2811 19.4253 3.2811 19.4749C3.2811 19.5244 3.30067 19.572 3.33557 19.6073L4.3926 20.6643C4.46525 20.737 4.58478 20.737 4.65744 20.6643L8.35119 16.9706L9.63322 18.2526C9.65796 18.2773 9.68916 18.2946 9.72325 18.3024C9.75734 18.3102 9.79294 18.3082 9.82596 18.2967C9.85899 18.2852 9.88811 18.2646 9.90998 18.2374C9.93185 18.2101 9.94559 18.1772 9.94963 18.1424L10.4981 13.7104C10.5019 13.6821 10.4992 13.6533 10.4901 13.6262C10.481 13.5991 10.4658 13.5745 10.4456 13.5543C10.4254 13.5341 10.4007 13.5189 10.3737 13.5098C10.3466 13.5006 10.3178 13.4979 10.2895 13.5018Z" fill="black"/>
</svg>
