<svg width="24" height="24" viewBox="0 0 24 24" fill="none" xmlns="http://www.w3.org/2000/svg">
<path d="M12.1528 8.44408C12.1355 8.42013 12.1128 8.40062 12.0865 8.38716C12.0602 8.3737 12.0311 8.36668 12.0016 8.36668C11.9721 8.36668 11.943 8.3737 11.9167 8.38716C11.8904 8.40062 11.8677 8.42013 11.8504 8.44408L7.67855 14.2097C7.58949 14.3339 7.67855 14.5073 7.83089 14.5073H8.93012C9.16918 14.5073 9.39652 14.3925 9.53715 14.198L12.0004 10.7902L14.4661 14.198C14.6067 14.3925 14.8317 14.5073 15.0731 14.5073H16.1723C16.3247 14.5073 16.4137 14.3339 16.3247 14.2097L12.1528 8.44408Z" fill="black"/>
<path d="M12 1.5C6.20156 1.5 1.5 6.20156 1.5 12C1.5 17.7984 6.20156 22.5 12 22.5C17.7984 22.5 22.5 17.7984 22.5 12C22.5 6.20156 17.7984 1.5 12 1.5ZM12 20.7188C7.18594 20.7188 3.28125 16.8141 3.28125 12C3.28125 7.18594 7.18594 3.28125 12 3.28125C16.8141 3.28125 20.7188 7.18594 20.7188 12C20.7188 16.8141 16.8141 20.7188 12 20.7188Z" fill="black"/>
</svg>
