<svg width="436" height="422" viewBox="0 0 436 422" fill="none" xmlns="http://www.w3.org/2000/svg">
<path d="M220.488 0C339.235 0 436 94.6842 436 210.972C436 327.26 339.278 421.944 220.488 421.944C191.776 422.593 163.22 417.618 136.5 407.31C109.779 397.002 85.4331 381.57 64.8917 361.92C44.3503 342.271 28.0281 318.8 16.8843 292.888C5.74055 266.975 0 239.143 0 211.028C0 182.913 5.74055 155.081 16.8843 129.169C28.0281 103.256 44.3503 79.7854 64.8917 60.1358C85.4331 40.4863 109.779 25.0542 136.5 14.7465C163.22 4.43872 191.776 -0.536749 220.488 0.112501V0ZM220.488 70.3239C192.072 70.3239 164.294 78.5728 140.667 94.0274C117.04 109.482 98.6249 131.448 87.7505 157.148C76.8761 182.848 74.0309 211.128 79.5746 238.411C85.1183 265.694 98.8019 290.755 118.895 310.425C138.988 330.095 164.589 343.49 192.459 348.917C220.329 354.344 249.217 351.559 275.47 340.914C301.723 330.268 324.162 312.241 339.949 289.112C355.736 265.982 364.163 238.789 364.163 210.972C364.195 192.492 360.501 174.188 353.292 157.109C346.083 140.03 335.502 124.511 322.154 111.444C308.806 98.3758 292.955 88.0157 275.509 80.9571C258.063 73.8985 239.366 70.2802 220.488 70.3099V70.3239Z" fill="#FFBF00"/>
</svg>
