<svg width="24" height="24" viewBox="0 0 24 24" fill="none" xmlns="http://www.w3.org/2000/svg">
<path fill-rule="evenodd" clip-rule="evenodd" d="M18.534 6.2146C19.0481 6.57059 19.1529 7.2447 18.768 7.72026L12.1203 15.9351C11.8725 16.2403 11.5567 16.4928 11.1943 16.6754C10.8318 16.8579 10.4312 16.9664 10.0195 16.9933C9.60788 17.0203 9.19476 16.9652 8.80813 16.8316C8.42149 16.6981 8.07038 16.4893 7.77854 16.2194L4.34057 13.0391C3.88648 12.619 3.88648 11.938 4.34057 11.518C4.79465 11.0979 5.53087 11.0979 5.98496 11.518L9.42279 14.6981C9.42282 14.6981 9.42277 14.6981 9.42279 14.6981C9.47911 14.7502 9.54693 14.7905 9.62151 14.8163C9.69613 14.842 9.77586 14.8527 9.85532 14.8475C9.93477 14.8423 10.0121 14.8214 10.082 14.7861C10.1518 14.751 10.2127 14.7024 10.2605 14.6436C10.2606 14.6435 10.2604 14.6437 10.2605 14.6436L16.9063 6.43109C17.2912 5.95553 18.0199 5.85861 18.534 6.2146Z" fill="#111111"/>
</svg>
