<svg width="24" height="24" viewBox="0 0 24 24" fill="none" xmlns="http://www.w3.org/2000/svg">
<path d="M12.9888 12L17.963 6.2411C18.0464 6.1454 17.9762 6 17.8474 6H16.3352C16.2462 6 16.1609 6.03865 16.1022 6.10491L11.9996 10.8552L7.8971 6.10491C7.84025 6.03865 7.75498 6 7.66402 6H6.15187C6.02301 6 5.9529 6.1454 6.03628 6.2411L11.0105 12L6.03628 17.7589C6.0176 17.7802 6.00562 17.8063 6.00175 17.8341C5.99789 17.8618 6.0023 17.8901 6.01447 17.9154C6.02664 17.9408 6.04606 17.9623 6.07041 17.9773C6.09477 17.9923 6.12304 18.0002 6.15187 18H7.66402C7.75309 18 7.83836 17.9613 7.8971 17.8951L11.9996 13.1448L16.1022 17.8951C16.159 17.9613 16.2443 18 16.3352 18H17.8474C17.9762 18 18.0464 17.8546 17.963 17.7589L12.9888 12Z" fill="black"/>
</svg>
