<svg width="24" height="24" viewBox="0 0 24 24" fill="none" xmlns="http://www.w3.org/2000/svg">
<path d="M12 1.5C6.20156 1.5 1.5 6.20156 1.5 12C1.5 17.7984 6.20156 22.5 12 22.5C17.7984 22.5 22.5 17.7984 22.5 12C22.5 6.20156 17.7984 1.5 12 1.5ZM12 20.7188C7.18594 20.7188 3.28125 16.8141 3.28125 12C3.28125 7.18594 7.18594 3.28125 12 3.28125C16.8141 3.28125 20.7188 7.18594 20.7188 12C20.7188 16.8141 16.8141 20.7188 12 20.7188Z" fill="#111111"/>
<path fill-rule="evenodd" clip-rule="evenodd" d="M15.6127 7.12876C15.9174 7.34236 15.9795 7.74682 15.7514 8.03216L11.812 12.961C11.6652 13.1442 11.478 13.2957 11.2633 13.4052C11.0485 13.5148 10.8111 13.5798 10.5671 13.596C10.3232 13.6122 10.0784 13.5791 9.84926 13.499C9.62015 13.4189 9.41208 13.2936 9.23914 13.1316L7.20182 11.2235C6.93273 10.9714 6.93273 10.5628 7.20182 10.3108C7.47091 10.0587 7.90719 10.0587 8.17627 10.3108L10.2135 12.2189C10.2469 12.2501 10.2871 12.2743 10.3313 12.2898C10.3755 12.3052 10.4227 12.3116 10.4698 12.3085C10.5169 12.3054 10.5627 12.2928 10.6042 12.2717C10.6455 12.2506 10.6816 12.2214 10.7099 12.1862L14.6482 7.25866C14.8762 6.97332 15.3081 6.91516 15.6127 7.12876Z" fill="#111111"/>
<path fill-rule="evenodd" clip-rule="evenodd" d="M16.6893 11.5288C17.032 11.7424 17.1019 12.1468 16.8453 12.4322L12.4136 17.361C12.2483 17.5442 12.0378 17.6957 11.7962 17.8052C11.5545 17.9148 11.2875 17.9798 11.013 17.996C10.7386 18.0122 10.4632 17.9791 10.2054 17.899C9.94766 17.8189 9.71359 17.6936 9.51903 17.5316L7.22704 15.6235C6.92432 15.3714 6.92432 14.9628 7.22704 14.7108C7.52977 14.4587 8.02058 14.4587 8.32331 14.7108L10.6152 16.6189C10.6527 16.6501 10.698 16.6743 10.7477 16.6898C10.7974 16.7052 10.8506 16.7116 10.9035 16.7085C10.9565 16.7054 11.0081 16.6928 11.0547 16.6717C11.1012 16.6506 11.1418 16.6214 11.1736 16.5862L15.6042 11.6587C15.8608 11.3733 16.3466 11.3152 16.6893 11.5288Z" fill="#111111"/>
</svg>
