<svg width="24" height="24" viewBox="0 0 24 24" fill="none" xmlns="http://www.w3.org/2000/svg">
<path d="M10.874 16.1265C10.874 16.4248 10.9926 16.711 11.2036 16.922C11.4145 17.1329 11.7007 17.2515 11.999 17.2515C12.2974 17.2515 12.5836 17.1329 12.7945 16.922C13.0055 16.711 13.124 16.4248 13.124 16.1265C13.124 15.8281 13.0055 15.542 12.7945 15.331C12.5836 15.12 12.2974 15.0015 11.999 15.0015C11.7007 15.0015 11.4145 15.12 11.2036 15.331C10.9926 15.542 10.874 15.8281 10.874 16.1265ZM12.5615 13.5015C12.6647 13.5015 12.749 13.4171 12.749 13.314V6.93898C12.749 6.83585 12.6647 6.75148 12.5615 6.75148H11.4365C11.3334 6.75148 11.249 6.83585 11.249 6.93898V13.314C11.249 13.4171 11.3334 13.5015 11.4365 13.5015H12.5615ZM21.9365 9.09522H20.5467C20.4858 9.09522 20.4295 9.12335 20.3944 9.17257L17.8983 12.6132L16.7287 11.0007C16.7114 10.9765 16.6885 10.9569 16.662 10.9435C16.6355 10.93 16.6061 10.9231 16.5764 10.9233H15.1865C15.0342 10.9233 14.9451 11.0968 15.0342 11.221L17.5936 14.753C17.6286 14.801 17.6745 14.84 17.7274 14.8669C17.7803 14.8938 17.8389 14.9078 17.8983 14.9078C17.9576 14.9078 18.0162 14.8938 18.0691 14.8669C18.1221 14.84 18.1679 14.801 18.203 14.753L22.0889 9.39288C22.178 9.26866 22.0889 9.09522 21.9365 9.09522ZM20.9053 16.2671H19.4006C19.2717 16.2671 19.1522 16.3351 19.0819 16.4429C18.7492 16.9714 18.3576 17.4605 17.9147 17.9007C17.1533 18.6626 16.2515 19.2699 15.2592 19.689C14.2305 20.1228 13.1249 20.3452 12.0084 20.3429C10.8811 20.3429 9.78655 20.1226 8.75764 19.689C7.76533 19.2699 6.86357 18.6626 6.10217 17.9007C5.33831 17.1413 4.73006 16.2401 4.31155 15.2476C3.87561 14.221 3.6553 13.1265 3.6553 12.0015C3.6553 10.8765 3.87561 9.78194 4.31155 8.75538C4.73108 7.76163 5.33342 6.86866 6.10217 6.10226C6.87092 5.33585 7.76389 4.73351 8.75764 4.31398C9.78639 3.8801 10.8919 3.65772 12.0084 3.66007C13.1358 3.66007 14.2303 3.88038 15.2592 4.31398C16.253 4.73351 17.1459 5.33585 17.9147 6.10226C18.36 6.54757 18.749 7.03507 19.0819 7.56007C19.1498 7.67023 19.2717 7.73585 19.4006 7.73585H20.9053C21.0459 7.73585 21.135 7.58819 21.074 7.46397C19.424 4.18507 16.0467 1.92335 12.1326 1.87648C6.53577 1.81085 1.88576 6.38819 1.87405 11.9827C1.86233 17.5819 6.40452 22.1265 12.0084 22.1265C15.974 22.1265 19.4053 19.853 21.0717 16.539C21.0861 16.5105 21.0929 16.4788 21.0916 16.4469C21.0903 16.415 21.0808 16.3839 21.0642 16.3567C21.0475 16.3295 21.0242 16.307 20.9964 16.2913C20.9686 16.2756 20.9372 16.2673 20.9053 16.2671Z" fill="black"/>
</svg>
