<svg width="24" height="24" viewBox="0 0 24 24" fill="none" xmlns="http://www.w3.org/2000/svg">
<path d="M20.625 2.625H3.375C2.96016 2.625 2.625 2.96016 2.625 3.375V20.625C2.625 21.0398 2.96016 21.375 3.375 21.375H20.625C21.0398 21.375 21.375 21.0398 21.375 20.625V3.375C21.375 2.96016 21.0398 2.625 20.625 2.625ZM19.6875 19.6875H4.3125V4.3125H19.6875V19.6875Z" fill="#111111"/>
<path fill-rule="evenodd" clip-rule="evenodd" d="M16.6246 8.39964C16.9562 8.64786 17.0238 9.1179 16.7756 9.4495L12.4877 15.1775C12.3279 15.3903 12.1242 15.5664 11.8904 15.6937C11.6566 15.821 11.3982 15.8966 11.1327 15.9154C10.8672 15.9342 10.6007 15.8957 10.3513 15.8026C10.1019 15.7095 9.87546 15.564 9.68722 15.3757L7.46967 13.1582C7.17678 12.8653 7.17678 12.3904 7.46967 12.0975C7.76256 11.8046 8.23744 11.8046 8.53033 12.0975L10.7478 14.315C10.7478 14.315 10.7478 14.315 10.7478 14.315C10.7841 14.3513 10.8278 14.3794 10.876 14.3974C10.9241 14.4154 10.9755 14.4228 11.0268 14.4191C11.078 14.4155 11.1279 14.4009 11.173 14.3764C11.218 14.3518 11.2573 14.318 11.2881 14.277C11.288 14.2771 11.2882 14.2769 11.2881 14.277L15.5748 8.55059C15.823 8.21899 16.293 8.15141 16.6246 8.39964Z" fill="#111111"/>
</svg>
