<svg width="24" height="24" viewBox="0 0 24 24" fill="none" xmlns="http://www.w3.org/2000/svg">
<path d="M12 1.5C6.20156 1.5 1.5 6.20156 1.5 12C1.5 17.7984 6.20156 22.5 12 22.5C17.7984 22.5 22.5 17.7984 22.5 12C22.5 6.20156 17.7984 1.5 12 1.5ZM12 20.7188C7.18594 20.7188 3.28125 16.8141 3.28125 12C3.28125 7.18594 7.18594 3.28125 12 3.28125C16.8141 3.28125 20.7188 7.18594 20.7188 12C20.7188 16.8141 16.8141 20.7188 12 20.7188Z" fill="#111111"/>
<path fill-rule="evenodd" clip-rule="evenodd" d="M16.6246 8.39959C16.9562 8.64782 17.0238 9.11786 16.7756 9.44945L12.4877 15.1774C12.3279 15.3903 12.1242 15.5663 11.8904 15.6936C11.6566 15.8209 11.3982 15.8966 11.1327 15.9154C10.8672 15.9342 10.6007 15.8957 10.3513 15.8026C10.1019 15.7095 9.87546 15.5639 9.68722 15.3757L7.46967 13.1582C7.17678 12.8653 7.17678 12.3904 7.46967 12.0975C7.76256 11.8046 8.23744 11.8046 8.53033 12.0975L10.7478 14.3149C10.7841 14.3513 10.8278 14.3794 10.876 14.3973C10.9241 14.4153 10.9755 14.4227 11.0268 14.4191C11.078 14.4155 11.1279 14.4009 11.173 14.3763C11.218 14.3518 11.2573 14.3179 11.2881 14.2769L15.5748 8.55055C15.823 8.21895 16.293 8.15136 16.6246 8.39959Z" fill="#111111"/>
</svg>
